<svg xmlns="http://www.w3.org/2000/svg" viewBox="0 0 128 128" width="128"
     height="128">
    <style>
        tspan { white-space:pre }
        .shp0 { fill: #303030 }
        .shp1 { fill: #cfcfcf }
    </style>
    <path class="shp0"
          d="M64 0C28.64 0 0 28.64 0 64C0 99.36 28.64 128 64 128C99.36 128 128 99.36 128 64C128 28.64 99.36 0 64 0Z"/>
    <path fill-rule="evenodd" class="shp1"
          d="M79.36 24.8C81.76 25.44 83.68 26.4 85.76 27.68C89.44 30.08 92.32 32.96 94.56 36.8C96.96 40.64 97.92 44.96 97.92 49.6C97.92 54.08 96.8 58.4 94.56 62.24C92.32 66.24 89.44 69.28 85.76 71.52C83.68 72.8 81.44 73.92 79.36 74.56C76.96 75.2 74.56 75.52 72.16 75.52L72.16 66.56C76.48 66.4 80.48 64.96 84 61.6C87.52 58.24 89.28 54.24 89.28 49.44C89.28 44.64 87.68 40.64 84.32 37.28C80.96 33.92 76.96 32.32 72.16 32.32C67.36 32.32 63.2 33.92 60 37.28C56.64 40.64 55.04 44.64 55.04 49.44L55.04 102.72C53.12 100.8 50.08 97.92 46.4 94.24L46.4 49.44C46.4 47.04 46.72 44.64 47.36 42.4C48 40 48.96 37.92 50.24 36C52.64 32.32 55.52 29.44 59.36 27.04C63.2 24.8 67.52 23.84 72.16 23.84C74.56 23.84 77.12 24.16 79.36 24.8L79.36 24.8ZM80.16 49.44C80.16 53.92 76.48 57.6 72 57.6C67.36 57.76 63.84 54.08 63.84 49.44C63.84 44.96 67.52 41.28 72 41.28C76.48 41.28 80.16 44.96 80.16 49.44ZM40 46.24L40 89.28C36.16 85.44 33.12 82.56 31.36 80.64L31.36 46.24L40 46.24Z"/>
</svg>
